<?xml version="1.0" encoding="utf-8"?>
<svg version="1.1" xmlns:xlink="http://www.w3.org/1999/xlink" width="30px" height="30px" xmlns="http://www.w3.org/2000/svg">
  <g transform="matrix(1 0 0 1 -203 -432 )">
    <path d="M 218 432  C 226.4 432  233 438.6  233 447  C 233 455.4  226.4 462  218 462  C 209.6 462  203 455.4  203 447  C 203 438.6  209.6 432  218 432  Z " fill-rule="nonzero" fill="#ffffff" stroke="none" />
    <path d="M 218 432.5  C 226.12 432.5  232.5 438.88  232.5 447  C 232.5 455.12  226.12 461.5  218 461.5  C 209.88 461.5  203.5 455.12  203.5 447  C 203.5 438.88  209.88 432.5  218 432.5  Z " stroke-width="1" stroke="#797979" fill="none" />
  </g>
</svg>