<?xml version="1.0" encoding="utf-8"?>
<svg version="1.1" xmlns:xlink="http://www.w3.org/1999/xlink" width="30px" height="30px" xmlns="http://www.w3.org/2000/svg">
  <defs>
    <mask fill="white" id="clip4791">
      <path d="M 26 263.5  C 17.9525 263.5  11.5 257.0475  11.5 249  L 11.5 249  C 11.5 240.9525  17.9525 234.5  26 234.5  L 26 234.5  C 34.0475 234.5  40.5 240.9525  40.5 249  L 40.5 249  C 40.5 257.0475  34.0475 263.5  26 263.5  L 26 263.5  " fill-rule="evenodd" />
    </mask>
  </defs>
  <g transform="matrix(1 0 0 1 -11 -234 )">
    <path d="M 11 234  L 41 234  L 41 264  L 11 264  L 11 234  " fill-rule="nonzero" fill="#cccccc" stroke="none" mask="url(#clip4791)" />
    <path d="M 13 236  L 39 236  L 39 262  L 13 262  L 13 236  " fill-rule="nonzero" fill="#ffffff" stroke="none" mask="url(#clip4791)" />
    <path d="M 28.85 243  C 27.59 243  26.6 242.01  26.6 240.75  C 26.6 239.49  27.59 238.5  28.85 238.5  C 30.11 238.5  31.1 239.49  31.1 240.75  C 31.1 242.01  30.11 243  28.85 243  " fill-rule="nonzero" fill="#cccccc" stroke="none" mask="url(#clip4791)" />
    <path d="M 14 261  L 14 247.8  L 20 241.8  L 28.4 246.6  L 33.2 245.4  L 38 246.6  L 38 261  L 14 261  " fill-rule="nonzero" fill="#169bd5" stroke="none" mask="url(#clip4791)" />
    <path d="M 26 263  C 18.23 263  12 256.77  12 249  L 12 249  C 12 241.23  18.23 235  26 235  L 26 235  C 33.77 235  40 241.23  40 249  L 40 249  C 40 256.77  33.77 263  26 263  L 26 263  Z " stroke-width="2" stroke="#f2f2f2" fill="none" mask="url(#clip4791)" />
  </g>
</svg>