<?xml version="1.0" encoding="utf-8"?>
<svg version="1.1" xmlns:xlink="http://www.w3.org/1999/xlink" width="12px" height="12px" viewBox="285 108.5  12 12" xmlns="http://www.w3.org/2000/svg">
  <path d="M 291 108.5  C 294.36 108.5  297 111.14  297 114.5  C 297 117.86  294.36 120.5  291 120.5  C 287.64 120.5  285 117.86  285 114.5  C 285 111.14  287.64 108.5  291 108.5  Z " fill-rule="nonzero" fill="#f0f0f0" stroke="none" />
  <path d="M 291 109  C 294.08 109  296.5 111.42  296.5 114.5  C 296.5 117.58  294.08 120  291 120  C 287.92 120  285.5 117.58  285.5 114.5  C 285.5 111.42  287.92 109  291 109  Z " stroke-width="1" stroke="#797979" fill="none" />
  <path d="M 291 117.5  C 289.32 117.5  288 116.18  288 114.5  C 288 112.82  289.32 111.5  291 111.5  C 292.68 111.5  294 112.82  294 114.5  C 294 116.18  292.68 117.5  291 117.5  " fill-rule="nonzero" fill="#797979" stroke="none" />
</svg>