<?xml version="1.0" encoding="utf-8"?>
<svg version="1.1" xmlns:xlink="http://www.w3.org/1999/xlink" width="23px" height="26px" xmlns="http://www.w3.org/2000/svg">
  <g transform="matrix(1 0 0 1 -308 -346 )">
    <path d="M 0.170333813861759 11.0917687513432  C 0.19666562421738 19.2403671878358  9.83410256229652 24.9367228615947  10.2554112399825 25.1921647942188  L 11.5983328121087 25.9840348726628  L 12.9412543482344 25.1921647942188  C 13.3625630619209 24.9622670373952  23 19.2403671878358  23 11.0917687513432  C 23 4.97609391310207  17.8894051460968 0.0183598981839675  11.5851669069309 0.0183598981839675  C 5.28092866776494 0.0183598981839675  0.170333813861757 4.97609391310207  0.170333813861757 11.0917687513432  Z M 5.43669278894315 11.066224540619  C 5.45119161382908 7.77500982386122  8.20560973810227 5.11439688032792  11.5983328121087 5.11442693423598  C 14.9807772270196 5.12841977071911  17.7192167500569 7.78495098856537  17.7336410249186 11.066224540619  C 17.7336410249186 14.6679561573179  14.0735215455172 18.0908783687943  11.5983328121087 19.8789721067054  C 9.43912562296519 18.3207761605416  5.43669278894315 14.7701329652912  5.43669278894315 11.066224540619  Z " fill-rule="nonzero" fill="#272536" stroke="none" transform="matrix(1 0 0 1 308 346 )" />
  </g>
</svg>