<?xml version="1.0" encoding="utf-8"?>
<svg version="1.1" xmlns:xlink="http://www.w3.org/1999/xlink" width="22px" height="23px" xmlns="http://www.w3.org/2000/svg">
  <g transform="matrix(1 0 0 1 -337 -310 )">
    <path d="M 1.34414252065986 0.131665483264553  C 1.65571672750162 0.131665483264553  1.95708208086186 0.245371696419432  2.19410714285714 0.45236013986014  L 2.26613096261161 0.520046630517919  L 11.1643452483259 9.62823426573427  L 19.7351785714286 0.855798378769668  C 19.9811161371492 0.601628365083383  20.3161175206266 0.458629583869781  20.6656207376926 0.458629583869781  C 21.3888507728832 0.458629583869781  21.9751445574471 1.05871413132553  21.9751445574471 1.79895593466742  C 21.9751445574471 2.12227763781449  21.8609575266519 2.4347022508822  21.6536309626116 2.67864218067089  L 21.5881547516741 2.75236013986014  L 13.0160118945312 11.523455721427  L 21.5875 20.2958916083916  C 21.8362635839069 20.5476695084018  21.9762528949862 20.8908608655182  21.9762528949862 21.2489403275017  C 21.9762528949862 21.9891821308436  21.3899591104223 22.5892666782994  20.6667290752318 22.5892666782994  C 20.3508118162891 22.5892666782994  20.0455438849581 22.472374597123  19.807202391183 22.2601398601399  L 19.7351785714286 22.1917832167832  L 11.1643452483259 13.4193473298186  L 2.26613096261161 22.5282051177338  C 2.02053800420383 22.7796390825594  1.68740483033511 22.9208986100959  1.34003959200037 22.9208986100959  C 0.616809556809811 22.9208986100959  0.0305157722459054 22.3208140626402  0.0305157722459054 21.5805722592983  C 0.0305157722459054 21.259592554091  0.14305769739501 20.9492708377108  0.347678571428573 20.7060314685315  L 0.413809534040181 20.6323135093422  L 9.31267857142857 11.523455721427  L 0.414464285714286 2.41593823890953  C 0.171148567035385 2.1648942656522  0.0346187009053954 1.82560671976028  0.0346187009053954 1.47199183406219  C 0.0346187009053954 0.731750030720298  0.620912485469301 0.131665483264553  1.34414252065986 0.131665483264553  Z " fill-rule="nonzero" fill="#111111" stroke="none" transform="matrix(1 0 0 1 337 310 )" />
  </g>
</svg>