<?xml version="1.0" encoding="utf-8"?>
<svg version="1.1" xmlns:xlink="http://www.w3.org/1999/xlink" width="12px" height="12px" viewBox="190 640  12 12" xmlns="http://www.w3.org/2000/svg">
  <path d="M 196 640  C 199.36 640  202 642.64  202 646  C 202 649.36  199.36 652  196 652  C 192.64 652  190 649.36  190 646  C 190 642.64  192.64 640  196 640  Z " fill-rule="nonzero" fill="#f0f0f0" stroke="none" />
  <path d="M 196 640.5  C 199.08 640.5  201.5 642.92  201.5 646  C 201.5 649.08  199.08 651.5  196 651.5  C 192.92 651.5  190.5 649.08  190.5 646  C 190.5 642.92  192.92 640.5  196 640.5  Z " stroke-width="1" stroke="#797979" fill="none" />
  <path d="M 196 649  C 194.32 649  193 647.68  193 646  C 193 644.32  194.32 643  196 643  C 197.68 643  199 644.32  199 646  C 199 647.68  197.68 649  196 649  " fill-rule="nonzero" fill="#797979" stroke="none" />
</svg>