<?xml version="1.0" encoding="utf-8"?>
<svg version="1.1" xmlns:xlink="http://www.w3.org/1999/xlink" width="12px" height="12px" viewBox="109 704  12 12" xmlns="http://www.w3.org/2000/svg">
  <path d="M 115 704  C 118.36 704  121 706.64  121 710  C 121 713.36  118.36 716  115 716  C 111.64 716  109 713.36  109 710  C 109 706.64  111.64 704  115 704  Z " fill-rule="nonzero" fill="#ffffff" stroke="none" />
  <path d="M 115 704.5  C 118.08 704.5  120.5 706.92  120.5 710  C 120.5 713.08  118.08 715.5  115 715.5  C 111.92 715.5  109.5 713.08  109.5 710  C 109.5 706.92  111.92 704.5  115 704.5  Z " stroke-width="1" stroke="#797979" fill="none" />
  <path d="M 115 713  C 113.32 713  112 711.68  112 710  C 112 708.32  113.32 707  115 707  C 116.68 707  118 708.32  118 710  C 118 711.68  116.68 713  115 713  " fill-rule="nonzero" fill="#797979" stroke="none" />
</svg>