<?xml version="1.0" encoding="utf-8"?>
<svg version="1.1" xmlns:xlink="http://www.w3.org/1999/xlink" width="12px" height="12px" viewBox="209 186  12 12" xmlns="http://www.w3.org/2000/svg">
  <path d="M 215 186  C 218.36 186  221 188.64  221 192  C 221 195.36  218.36 198  215 198  C 211.64 198  209 195.36  209 192  C 209 188.64  211.64 186  215 186  Z " fill-rule="nonzero" fill="#f0f0f0" stroke="none" />
  <path d="M 215 186.5  C 218.08 186.5  220.5 188.92  220.5 192  C 220.5 195.08  218.08 197.5  215 197.5  C 211.92 197.5  209.5 195.08  209.5 192  C 209.5 188.92  211.92 186.5  215 186.5  Z " stroke-width="1" stroke="#797979" fill="none" />
  <path d="M 215 195  C 213.32 195  212 193.68  212 192  C 212 190.32  213.32 189  215 189  C 216.68 189  218 190.32  218 192  C 218 193.68  216.68 195  215 195  " fill-rule="nonzero" fill="#797979" stroke="none" />
</svg>