<?xml version="1.0" encoding="utf-8"?>
<svg version="1.1" xmlns:xlink="http://www.w3.org/1999/xlink" width="24px" height="24px" xmlns="http://www.w3.org/2000/svg">
  <g transform="matrix(1 0 0 1 -64 -687 )">
    <path d="M 24 12.0005714296875  C 24 5.3719999921875  18.627428578125 0  12.0005714296875 0  C 5.3719999921875 0  0 5.3719999921875  0 12.0005714296875  C 0 18.627428578125  5.3719999921875 24  12.0005714296875 24  C 18.627428578125 24  24 18.627428578125  24 12.0005714296875  Z M 19.912571484375 6.684  C 20.3537142890625 7.1251428515625  20.3537142890625 7.8400000078125  19.9125714375 8.281142859375  L 10.8782857265625 17.3154285703125  C 10.6577142890625 17.5360000078125  10.369142859375 17.6457142734375  10.0800000234375 17.6457142734375  C 9.7908571875 17.6457142734375  9.501142875 17.535999984375  9.281142890625 17.3154285703125  L 4.0868571796875 12.1205714296875  C 3.645714328125 11.679428578125  3.645714328125 10.964571421875  4.0868571796875 10.524  C 4.52800003125 10.08228571875  5.2428571875 10.08228571875  5.6840000390625 10.524  L 10.080000046875 14.9200000078125  L 18.315428625 6.684  C 18.7565714765625 6.2428571484375  19.4714286328125 6.2428571484375  19.912571484375 6.684  Z " fill-rule="nonzero" fill="#272636" stroke="none" transform="matrix(1 0 0 1 64 687 )" />
  </g>
</svg>