<?xml version="1.0" encoding="utf-8"?>
<svg version="1.1" xmlns:xlink="http://www.w3.org/1999/xlink" width="24px" height="24px" xmlns="http://www.w3.org/2000/svg">
  <g transform="matrix(1 0 0 1 -185 -687 )">
    <path d="M 11.9709317130682 22.9802005056818  C 5.93388445738636 22.9802005056818  1.02225892329545 18.0686011278409  1.02225892329545 12.0315277159091  C 1.02225892329545 5.99442814772727  5.93385830113636 1.08282874431818  11.9709317130682 1.08282874431818  C 18.00803128125 1.08282874431818  22.9196306846591 5.99442812215909  22.9196306846591 12.0315277159091  C 22.9196306846591 18.0686011278409  18.00803128125 22.9802005056818  11.9709317130682 22.9802005056818  Z M 11.9709317130682 2.23543491477273  C 6.56920064488636 2.23543491477273  2.17483891193182 6.62977046590909  2.17483891193182 12.0315277159091  C 2.17483891193182 17.4332587840909  6.56920061931818 21.8277251676136  11.9709317130682 21.8277251676136  C 17.3726889630682 21.8277251676136  21.7671815028409 17.4332588096591  21.7671815028409 12.0315277159091  C 21.7671553210227 6.62977046590909  17.3726889630682 2.23543491477273  11.9709317130682 2.23543491477273  Z " fill-rule="nonzero" fill="#272636" stroke="none" transform="matrix(1 0 0 1 185 687 )" />
  </g>
</svg>